# xmcd
#
# Track frame offsets:
#	150
#	13780
#	27522
#	44273
#	61519
#	77150
#	91196
#
# Disc length: 1442 seconds
#
# Revision: 0
# Processed by: cddbd v1.5.2PL0 Copyright (c) Steve Scherf et al.
# Submitted via: dBpowerAMP V4.0
#
DISCID=4905a007
DTITLE=Angie Stevens - Stand Up Girl 2
DYEAR=2006
DGENRE=Alt Country
TTITLE0=Old Churchyard
TTITLE1=Picture (Passion and Pain)
TTITLE2=Truth Don't Lie
TTITLE3=Sleep Never Comes
TTITLE4=Whiskey Rain
TTITLE5=Wide Wonder
TTITLE6=Death In Life
EXTD=
EXTT0=
EXTT1=
EXTT2=
EXTT3=
EXTT4=
EXTT5=
EXTT6=
PLAYORDER=
